<svg width="888" height="888" viewBox="0 0 888 888" fill="none" xmlns="http://www.w3.org/2000/svg">
<path d="M409.673 344.064L490.891 305.594C491.507 305.303 492.168 305.218 492.791 304.979C486.01 302.301 478.381 302.39 471.632 305.594L390.41 344.064C378.673 349.635 371.219 361.456 371.219 374.396V575.136H390.479V374.396C390.479 361.456 397.933 349.635 409.673 344.064Z" fill="white"/>
<path d="M500.075 522.358C508.729 520.729 516.183 514.988 519.955 506.935L562.962 414.92C565.62 409.264 565.535 402.754 562.792 397.184L550.541 372.852C546.514 364.799 538.375 359.658 529.378 359.658H526.724L531.091 346.892C533.919 338.668 530.836 329.5 523.552 324.7L497.847 307.482C496.255 306.413 494.533 305.663 492.791 304.979C492.167 305.218 491.507 305.303 490.891 305.594L409.673 344.065C397.933 349.635 390.479 361.456 390.479 374.396V575.136H492.107H492.281V523.816L500.075 522.358Z" fill="#FFCC99"/>
<path d="M370.259 633.482V590.215C370.259 581.902 377.029 575.136 385.338 575.136H371.219H366.079C357.77 575.136 351 581.902 351 590.215V633.482C351 641.791 357.77 648.56 366.079 648.56H385.338C377.029 648.56 370.259 641.791 370.259 633.482Z" fill="white"/>
<path d="M492.107 575.136H371.219V374.396C371.219 361.456 378.673 349.635 390.41 344.065L471.632 305.594C480.115 301.568 490.053 302.252 497.847 307.482L523.552 324.7C530.836 329.501 533.919 338.668 531.091 346.892L526.724 359.658L509.673 409.435L500.764 435.48C497.592 444.648 488.939 450.818 479.256 450.818H435.99C429.394 450.818 423.994 445.421 423.994 438.737V437.023C423.994 421.69 436.419 409.264 451.757 409.264H457.668" stroke="#231F20" stroke-width="9" stroke-miterlimit="10"/>
<path d="M526.635 359.658H529.378C538.376 359.658 546.515 364.799 550.541 372.852L562.792 397.184C565.535 402.754 565.62 409.264 562.962 414.92L519.955 506.935C516.183 514.988 508.729 520.729 500.076 522.358L492.281 523.816V575.136" stroke="#231F20" stroke-width="9" stroke-miterlimit="10"/>
<path d="M509.673 409.435H529.977" stroke="#231F20" stroke-width="9" stroke-miterlimit="10"/>
<path d="M427.766 447.65L443.444 462.813C450.898 470.008 455.095 479.861 455.095 490.143V509.937" stroke="#231F20" stroke-width="9" stroke-miterlimit="10"/>
<rect x="343" y="573" width="169" height="72" rx="16" fill="white" stroke="#231F20" stroke-width="8"/>
<rect x="363" y="577" width="145" height="64" rx="10" fill="#66CC99"/>
</svg>
