<svg width="888" height="888" viewBox="0 0 888 888" fill="none" xmlns="http://www.w3.org/2000/svg">
<path d="M369.817 630.091V586.909C369.817 582.461 371.75 578.507 374.773 575.74H363.185C354.875 575.74 348.106 582.505 348.106 590.903V634.085C348.106 642.479 354.875 649.249 363.185 649.249H494.528C498.435 649.249 501.968 647.713 504.651 645.258H384.897C376.585 645.258 369.817 638.489 369.817 630.091Z" fill="white"/>
<path d="M522.493 284.556C522.932 282.822 523.658 281.251 524.578 279.845C523.722 279.233 522.935 278.536 521.944 278.099C519.888 277.24 517.832 276.81 515.776 276.81C508.921 276.81 502.581 281.437 500.782 288.551L493.739 317.132L494.306 398.938L522.493 284.556Z" fill="#FFCC99"/>
<path d="M548.71 388.141C549.084 387.521 549.583 387.06 550.015 386.509C547.366 384.888 544.402 383.993 541.393 383.993C538.888 383.993 536.411 384.629 534.116 385.731L526.435 424.898L548.71 388.141Z" fill="#FFCC99"/>
<path d="M401.774 281.303C401.774 280.874 401.689 280.444 401.689 280.104C401.689 276.912 402.786 273.987 404.496 271.491C400.934 268.988 396.37 267.938 391.802 269.101C384.862 270.815 379.978 276.985 379.978 284.095C379.978 284.439 380.064 284.864 380.064 285.294L384.211 342.505L411.028 408.96L401.774 281.303Z" fill="#FFCC99"/>
<path d="M459.864 249.943C460.037 246.342 461.369 243.08 463.444 240.435C460.928 238.92 458.01 238 454.86 238C445.864 238 438.581 245.025 438.153 253.938L436.151 298.152L453.18 397.564L459.864 249.943Z" fill="#FFCC99"/>
<path d="M399.118 505.691L351.311 341.532C350.882 340.078 350.712 338.704 350.712 337.25C350.712 334.386 351.553 331.607 353.056 329.217C348.651 325.955 342.655 325.145 337.311 327.791C332.085 330.359 329 335.67 329 341.241C329 342.699 329.171 344.068 329.6 345.527L377.408 509.681V575.74H480.22V571.745H399.118V505.691Z" fill="white"/>
<path d="M502.324 509.681L556.129 408.669C559.128 403.098 558.7 396.248 555.015 391.107C553.631 389.118 551.891 387.655 550.015 386.509C549.584 387.06 549.084 387.521 548.71 388.141L526.435 424.898L534.116 385.731C531.31 387.08 528.79 389.162 526.999 392.132L504.723 428.888L530.94 295.231C532.105 289.191 529.418 283.313 524.578 279.845C523.658 281.251 522.932 282.822 522.493 284.556L494.306 398.938L493.739 317.132L472.594 402.928L471.566 254.537C471.509 248.521 468.25 243.327 463.444 240.435C461.369 243.08 460.037 246.341 459.864 249.943L453.18 397.564L436.151 298.152L431.47 401.559L410.907 281.526C410.171 277.272 407.749 273.78 404.496 271.491C402.786 273.987 401.688 276.912 401.688 280.104C401.688 280.444 401.774 280.874 401.774 281.303L411.027 408.96L384.21 342.505L389.316 412.951L358.13 335.67C357.03 332.964 355.22 330.817 353.056 329.217C351.552 331.607 350.711 334.386 350.711 337.25C350.711 338.705 350.882 340.078 351.311 341.532L399.118 505.691V571.745H480.22V535.386L502.324 509.681Z" fill="#FFCC99"/>
<path d="M431.47 401.559L410.908 281.526C409.365 272.613 400.541 266.873 391.802 269.101C384.862 270.815 379.978 276.985 379.978 284.094C379.978 284.439 380.064 284.864 380.064 285.294L389.317 412.951" stroke="#231F20" stroke-width="9" stroke-miterlimit="10"/>
<path d="M472.595 402.928L471.566 254.537C471.481 245.369 464.027 238 454.86 238C445.864 238 438.581 245.025 438.153 253.938L431.47 401.559" stroke="#231F20" stroke-width="9" stroke-miterlimit="10"/>
<path d="M504.724 428.888L530.941 295.231C532.311 288.121 528.542 281.012 521.945 278.099C519.888 277.24 517.832 276.81 515.776 276.81C508.922 276.81 502.582 281.437 500.783 288.551L472.595 402.928" stroke="#231F20" stroke-width="9" stroke-miterlimit="10"/>
<path d="M389.317 412.951L358.131 335.67C354.789 327.446 345.279 323.849 337.311 327.791C332.085 330.359 329 335.67 329 341.241C329 342.699 329.171 344.068 329.6 345.527L377.408 509.681V575.74H480.22V535.386L502.324 509.681L556.129 408.669C559.128 403.098 558.7 396.248 555.016 391.107C551.674 386.306 546.534 383.993 541.393 383.993C535.824 383.993 530.255 386.735 526.999 392.132L504.723 428.888L464.198 433.344L441.323 477.381" stroke="#231F20" stroke-width="9" stroke-miterlimit="10"/>
<rect x="343" y="573" width="169" height="72" rx="16" fill="white" stroke="#231F20" stroke-width="8"/>
<rect x="363" y="577" width="145" height="64" rx="10" fill="#66CC99"/>
</svg>
