<svg width="888" height="888" viewBox="0 0 888 888" fill="none" xmlns="http://www.w3.org/2000/svg">
<path d="M526.787 268.919C533.469 271.832 537.325 279.031 535.868 286.226L508.023 429.565V429.65L474.695 412.084C470.069 409.601 464.414 411.315 461.843 415.856L458.759 421.337C457.731 423.14 457.131 425.109 456.874 426.993L443.851 427.252C443.851 425.794 443.68 424.254 443.251 422.711L427.144 361.453L406.496 260.525C406.239 259.411 406.153 258.297 406.153 257.183C406.153 249.984 410.78 243.474 417.805 241.246C427.059 238.333 436.826 243.903 439.053 253.326L473.667 389.641L505.453 279.201C507.338 272.176 513.764 267.635 520.618 267.635C522.674 267.635 524.73 268.065 526.787 268.919Z" fill="#FFCC99"/>
<path d="M378.908 420.138V400.263C378.908 392.894 383.535 386.299 390.474 383.811L429.358 369.871L427.144 361.453L364.772 383.811C357.832 386.299 353.205 392.894 353.205 400.263V420.138L381.222 507.616V573.674H406.924V507.616L378.908 420.138Z" fill="white"/>
<path d="M506.052 507.616L528.329 465.807C534.154 454.926 530.042 441.302 519.075 435.476L508.023 429.65L474.695 412.084C470.069 409.601 464.414 411.315 461.843 415.856L458.759 421.337C457.731 423.14 457.131 425.109 456.874 426.993L443.851 427.252C443.851 425.794 443.68 424.254 443.251 422.711L429.358 369.871L390.474 383.811C383.535 386.299 378.908 392.894 378.908 400.263V420.138L406.924 507.616V573.674H484.034V533.32L506.052 507.616Z" fill="#FFCC99"/>
<path d="M377.537 632.105V588.753C377.537 580.44 384.306 573.674 392.616 573.674H381.221H366.913C358.603 573.674 351.834 580.44 351.834 588.753V632.105C351.834 640.414 358.603 647.098 366.913 647.098H392.616C384.306 647.098 377.537 640.414 377.537 632.105Z" fill="white"/>
<path d="M473.667 389.641L439.053 253.326C436.826 243.903 427.059 238.333 417.805 241.246C410.78 243.474 406.153 249.984 406.153 257.183C406.153 258.297 406.239 259.411 406.496 260.525L427.144 361.453" stroke="#231F20" stroke-width="9" stroke-miterlimit="10"/>
<path d="M508.024 429.565L535.868 286.226C537.325 279.031 533.469 271.832 526.787 268.919C524.73 268.065 522.674 267.635 520.618 267.635C513.764 267.635 507.338 272.177 505.453 279.201L473.667 389.641" stroke="#231F20" stroke-width="9" stroke-miterlimit="10"/>
<path d="M488.574 461.092L475.551 451.154L462.871 441.387C458.331 437.959 456.189 432.393 456.874 426.993C457.131 425.109 457.731 423.14 458.759 421.337L461.843 415.856C464.414 411.315 470.069 409.601 474.695 412.084L508.023 429.65L519.075 435.476C530.042 441.302 534.154 454.926 528.329 465.807L506.053 507.616L484.034 533.32V573.674H381.222V507.616L353.205 420.138V400.263C353.205 392.894 357.832 386.299 364.772 383.811L427.144 361.453L443.251 422.711C443.68 424.254 443.851 425.794 443.851 427.252C443.851 435.731 437.854 443.36 429.115 444.899L404.954 449.27C396.472 450.814 388.161 445.928 385.42 437.874L377.28 414.657" stroke="#231F20" stroke-width="9" stroke-miterlimit="10"/>
<path d="M475.552 451.154L438.54 494.336" stroke="#231F20" stroke-width="9" stroke-miterlimit="10"/>
<rect x="343" y="573" width="169" height="72" rx="16" fill="white" stroke="#231F20" stroke-width="8"/>
<rect x="363" y="577" width="145" height="64" rx="10" fill="#66CC99"/>
</svg>
